<svg xmlns="http://www.w3.org/2000/svg" width="59" height="72"><g fill="#FFF"><path d="M58.3 20.5a3 3 0 00-2.4-1.1H17.3L14.8 12H3.1a3 3 0 100 6h7.4L24 58.3H49a3 3 0 100-6H28.3L26.6 47h23a3 3 0 003-2.2l6.2-21.7a3 3 0 00-.5-2.7zm-7.7 9.7h-4.9v-4.8H52l-1.4 4.8zm-17.7 0v-4.8h6.8v4.8H33zm6.8 6v4.9H33v-4.9h6.8zM27 25.3v5h-6l-1.6-5h7.6zm-4 11h4V41h-2.3l-1.7-4.9zM45.7 41v-4.9h3.1l-1.4 4.9h-1.7z"/><circle cx="27.4" cy="66.1" r="5.8"/><circle cx="44.8" cy="66.1" r="5.8"/><path d="M29.3 9.7l7.6 5.5a2 2 0 002.8-.5c.6-1 .4-2.2-.5-2.9l-2.4-1.7L46.3 5l4.6 12h4.4l-6-15.7A2 2 0 0048 .1a2 2 0 00-1.6.1L33 7.4l-3-2.2a2 2 0 00-2.7.4l-8.5 10.8a2.2 2.2 0 00-.4.6h5.1l5.7-7.3z"/></g></svg>