<svg xmlns="http://www.w3.org/2000/svg" width="78" height="62"><g fill="#FFF"><path d="M16.1 29.7a16.1 16.1 0 100 32.3 16.1 16.1 0 000-32.3zm0 23.5a7.3 7.3 0 01-7.3-7.3 7.3 7.3 0 1114.6 0 7.3 7.3 0 01-7.3 7.3zM61 45.9a8 8 0 00-8.1 8 8 8 0 1016.1 0 8 8 0 00-8-8zm0 13.1a5 5 0 110-10.1 5 5 0 010 10.1z"/><path d="M77.9 49.7l-2.5-18.4c-.5-4.1-3.6-4.7-3.6-4.7L66 26V14h-3v5.8h-4v5.3l-11.8-1.4L36.6 2C35.8 0 33.5 0 33.5 0S11.1 2.4 8.7 3 5.3 6.2 5.3 6.2A69.8 69.8 0 003 26.4a23.3 23.3 0 0113.1-4A23.4 23.4 0 0138.5 53h10.2a12.2 12.2 0 0124.3 0h2c3.6 0 2.9-3.2 2.9-3.2zM23.1 19.8h-7V6.2h7v13.6zm10 0h-7V6.2h7v13.6zM53 36H49v-7h4v7zm7 0H56v-7h4v7zm7 0H63v-7h4v7z"/></g></svg>