<svg xmlns="http://www.w3.org/2000/svg" width="75" height="61"><path d="M5 59s0 2 2 2h27s2-.2 2-2V48H5v11zM74 8H60.4c-.6-2.3-2-3.9-3.8-3.9h-7.5V17h7.5c1.7 0 3.2-1.6 3.8-4h13.5c.5 0 1-1 1-2.4S74.4 8 74 8zM2 0C.1 0 0 2 0 2V18c0 2.9 2.9 3 2.9 3h9c2 0 1.6 1.3 1.6 1.3s-2.5 13-2.7 15.2c-.3 2.2-1.9 3.6-1.9 3.6l-3 1.7c-.9.5-.9 2.2-.9 2.2h31V44c0-1.4-6.5-3.1-9.1-3.4-2.6-.2-2.1-2-2.1-2l1-7.8h3l1.2-7.8h-3l.3-2.8 8.6-.1c5.8-.6 10-4 10-4v-12C41.3.7 34 0 34 0H2.2zM36 5c0 .5-.5 1-1 1H5a1 1 0 01-1-1c0-.6.5-1 1-1h30c.6 0 1 .4 1 1z" fill="#FFF"/></svg>