<svg xmlns="http://www.w3.org/2000/svg" width="44" height="65"><g fill="#FFF"><path d="M38 30.4v11s0 2.6-3 2.6-3-2.7-3-2.7V35c0-.2-.4-2-2.4-2-2.6 0-2.6 2-2.6 2V54s0 1.8-2.5 1.8-2.5-2-2.5-2V40s0-3-3.8-3c-4 0-4 3.2-4 3.2v3.7s0 3-4.7 3S5 42.4 5 42.4V29.9L0 26.7V56s3 9 22 9 22-8.7 22-8.7V26.7c-3 2.8-6 3.7-6 3.7z"/><path d="M22 0C1.7 0 0 19.9 0 19.9v3C8.4 29.2 22 29 22 29s13.6.2 22-6v-3.1S42.3 0 22 0zm0 25c-11.8 0-14.3-2.4-14.3-2.4C13.9 19.7 22 20 22 20s8-.1 14.3 2.7c0 0-2.5 2.4-14.3 2.4zm0-12.4c-9.6 0-17.7 3-17.7 3C9 2.6 22 3 22 3s13.1-.5 17.7 12.5c0 0-8.1-3-17.7-3z"/></g></svg>