<svg xmlns="http://www.w3.org/2000/svg" preserveAspectRatio="xMidYMid" width="136.5" height="21.6"><path d="M131.7 2.4v18.9H129V2.4h-4.8V.3h12.3v2.1h-4.8zm-10.4 11.1c-.5.6-1 1-1.8 1.3-.7.2-1.5.3-2.5.3a15.3 15.3 0 01-3-.3v6.5h-2.7V.6A14.1 14.1 0 01116 0c1.2 0 2.2.1 3 .4.9.2 1.6.6 2 1.2.6.6 1 1.4 1.2 2.3.3 1 .4 2.2.4 3.6 0 1.5-.1 2.7-.4 3.7-.2 1-.5 1.7-1 2.3zm-1.5-8.7c-.2-.7-.4-1.3-.7-1.7-.4-.4-.8-.7-1.3-.9-.4-.2-1-.3-1.7-.3H114V13h2c.8 0 1.4 0 1.8-.2.5-.2 1-.5 1.3-.9.3-.4.5-1 .7-1.7l.2-2.7c0-1 0-2-.2-2.7zm-15.3 11.1h-6l-1.3 5.4h-2.7l5-21h4l5 21H106l-1.4-5.4zm-2.9-12.6h-.1L99 13.8h5l-2.4-10.5zm-13 2.4h-.1L84 18.6h-2.7L77.1 5.7h-.2L76 21.3h-2.7l1.2-21h3.3l5 14.4 5-14.4H91l1.2 21h-2.7l-.9-15.6zM68.5 19.3c-.6.9-1.3 1.4-2 1.8-.8.3-1.7.5-2.8.5-1 0-1.9-.2-2.7-.5-.8-.4-1.4-1-2-1.8-.6-.8-1-1.9-1.3-3.3-.3-1.4-.4-3.1-.4-5.2s.1-3.8.4-5.2c.3-1.4.7-2.5 1.3-3.4.6-.8 1.2-1.4 2-1.7.8-.3 1.7-.5 2.7-.5 1 0 2 .2 2.8.5.7.3 1.4 1 2 1.7.5.9 1 2 1.3 3.4.2 1.4.4 3.1.4 5.2s-.2 3.8-.4 5.2a9.2 9.2 0 01-1.3 3.3zm-1.3-13c-.2-1.1-.5-2-.8-2.7-.4-.7-.8-1.2-1.2-1.4a2.8 2.8 0 00-2.8 0c-.5.2-1 .7-1.3 1.4-.3.7-.6 1.6-.8 2.8-.2 1.1-.3 2.6-.3 4.4 0 1.8.1 3.3.3 4.4.2 1.2.5 2.1.8 2.8.4.7.8 1.1 1.2 1.4.5.3 1 .4 1.4.4.5 0 1-.1 1.5-.4.4-.3.8-.7 1.2-1.4.3-.7.6-1.6.8-2.8.2-1.1.3-2.6.3-4.4 0-1.8-.1-3.3-.3-4.4zM51 11.8h-6.3v9.6H42V.3h2.7v9.3H51V.3h2.7v21H51v-9.6zm-14.3 9.6l-3.7-9-3.8 9h-2.7L31 10.5 27 .3h2.7L33 8.7 36.3.3H39l-4 10.2 4.4 10.8h-2.7zm-22-21h10.2v2.1h-7.5v6.9H24v2.1h-6.6v7.8h7.5v2.1H14.7V.3zm-7.2 21H4.8V2.4H0V.3h12.3v2.1H7.5v18.9z" fill="#fff" fill-rule="evenodd"/></svg>